<svg xmlns="http://www.w3.org/2000/svg" xmlns:xlink="http://www.w3.org/1999/xlink" viewBox="0 0 45 45"><defs><style>.cls-1{stroke:#1f1f20;stroke-miterlimit:10;fill:url(#radial-gradient);}.cls-2{stroke:#e5e09e;stroke-linecap:round;stroke-linejoin:round;stroke-width:0.25px;fill:url(#Dégradé_sans_nom_88);}</style><radialGradient id="radial-gradient" cx="181.5" cy="127.5" r="22" gradientTransform="translate(150 -159) rotate(90)" gradientUnits="userSpaceOnUse"><stop offset="0" stop-color="#565554"/><stop offset="0.05" stop-color="#51504f"/><stop offset="0.23" stop-color="#424242"/><stop offset="0.37" stop-color="#3d3d3e"/><stop offset="0.8" stop-color="#333"/><stop offset="0.99" stop-color="#282829"/></radialGradient><linearGradient id="Dégradé_sans_nom_88" x1="277.5" y1="42.35" x2="256" y2="42.35" gradientTransform="translate(233.17 -128.28) rotate(135)" gradientUnits="userSpaceOnUse"><stop offset="0" stop-color="#fced5c"/><stop offset="0.06" stop-color="#fdd249"/><stop offset="0.15" stop-color="#feb032"/><stop offset="0.23" stop-color="#fe9821"/><stop offset="0.31" stop-color="#ff8917"/><stop offset="0.37" stop-color="#ff8413"/><stop offset="0.8" stop-color="#cf4610"/><stop offset="0.99" stop-color="#a53b2e"/></linearGradient></defs><g id="Layer_2" data-name="Layer 2"><g id="Calque_1" data-name="Calque 1"><path class="cls-1" d="M22.5,44.5c-6,0-8-3-8-3v-11H3.5s-3-2-3-8,3-8,3-8h11V3.5s2-3,8-3,8,3,8,3v11h11s3,2,3,8-3,8-3,8h-11v11S28.5,44.5,22.5,44.5Z"/><polyline class="cls-2" points="24.68 25.27 19.73 20.32 9.83 30.22 7 27.39 7 38 17.61 38 14.78 35.17 24.68 25.27"/></g></g></svg>