<svg xmlns="http://www.w3.org/2000/svg" xmlns:xlink="http://www.w3.org/1999/xlink" viewBox="0 0 45 52.13"><defs><style>.cls-1{stroke:#1f1f20;stroke-miterlimit:10;fill:url(#radial-gradient);}.cls-2,.cls-3{stroke:#e5e09e;stroke-linecap:round;stroke-linejoin:round;stroke-width:0.25px;}.cls-2{fill:url(#Dégradé_sans_nom_88);}.cls-3{fill:url(#Dégradé_sans_nom_88-2);}</style><radialGradient id="radial-gradient" cx="-105.25" cy="-80.12" r="22" gradientTransform="translate(-57.62 134.88) rotate(90)" gradientUnits="userSpaceOnUse"><stop offset="0" stop-color="#565554"/><stop offset="0.05" stop-color="#51504f"/><stop offset="0.23" stop-color="#424242"/><stop offset="0.37" stop-color="#3d3d3e"/><stop offset="0.8" stop-color="#333"/><stop offset="0.99" stop-color="#282829"/></radialGradient><linearGradient id="Dégradé_sans_nom_88" x1="-157.48" y1="-80" x2="-185.06" y2="-80" gradientTransform="matrix(0, -1.07, -1, 0, -57.62, -168.35)" gradientUnits="userSpaceOnUse"><stop offset="0" stop-color="#fced5c"/><stop offset="0.06" stop-color="#fdd249"/><stop offset="0.15" stop-color="#feb032"/><stop offset="0.23" stop-color="#fe9821"/><stop offset="0.31" stop-color="#ff8917"/><stop offset="0.37" stop-color="#ff8413"/><stop offset="0.8" stop-color="#cf4610"/><stop offset="0.99" stop-color="#a53b2e"/></linearGradient><linearGradient id="Dégradé_sans_nom_88-2" x1="-167.99" y1="-80" x2="-199.08" y2="-80" xlink:href="#Dégradé_sans_nom_88"/></defs><g id="Layer_2" data-name="Layer 2"><g id="Calque_1" data-name="Calque 1"><path class="cls-1" d="M22.5,51.63c-6,0-8-3-8-3v-11H3.5s-3-2-3-8,3-8,3-8h11v-11s2-3,8-3,8,3,8,3v11h11s3,2,3,8-3,8-3,8h-11v11S28.5,51.63,22.5,51.63Z"/><polyline class="cls-2" points="25.82 29.63 18.93 29.63 18.93 10.42 15 10.42 22.38 0.13 29.75 10.42 25.82 10.42 25.82 29.63"/><rect class="cls-3" x="18.93" y="32.13" width="6.88" height="12.5"/></g></g></svg>