<svg xmlns="http://www.w3.org/2000/svg" xmlns:xlink="http://www.w3.org/1999/xlink" viewBox="0 0 45 45"><defs><style>.cls-1{stroke:#1f1f20;stroke-miterlimit:10;fill:url(#radial-gradient);}.cls-2{stroke:#e5e09e;stroke-linecap:round;stroke-linejoin:round;stroke-width:0.25px;fill:url(#Dégradé_sans_nom_88);}</style><radialGradient id="radial-gradient" cx="22.5" cy="22.5" r="22" gradientUnits="userSpaceOnUse"><stop offset="0" stop-color="#565554"/><stop offset="0.05" stop-color="#51504f"/><stop offset="0.23" stop-color="#424242"/><stop offset="0.37" stop-color="#3d3d3e"/><stop offset="0.8" stop-color="#333"/><stop offset="0.99" stop-color="#282829"/></radialGradient><linearGradient id="Dégradé_sans_nom_88" x1="245.99" y1="110.88" x2="224.49" y2="110.88" gradientTransform="matrix(-0.7, -0.7, -0.71, 0.71, 257.1, 100.21)" gradientUnits="userSpaceOnUse"><stop offset="0" stop-color="#fced5c"/><stop offset="0.06" stop-color="#fdd249"/><stop offset="0.15" stop-color="#feb032"/><stop offset="0.23" stop-color="#fe9821"/><stop offset="0.31" stop-color="#ff8917"/><stop offset="0.37" stop-color="#ff8413"/><stop offset="0.8" stop-color="#cf4610"/><stop offset="0.99" stop-color="#a53b2e"/></linearGradient></defs><g id="Layer_2" data-name="Layer 2"><g id="Calque_1" data-name="Calque 1"><path class="cls-1" d="M44.5,22.5c0,6-3,8-3,8h-11v11s-2,3-8,3-8-3-8-3v-11H3.5s-3-2-3-8,3-8,3-8h11V3.5s2-3,8-3,8,3,8,3v11h11S44.5,16.5,44.5,22.5Z"/><polyline class="cls-2" points="24.55 19.52 19.6 24.48 9.83 14.71 7 17.54 7.07 7 17.61 6.93 14.78 9.76 24.55 19.52"/></g></g></svg>