<svg xmlns="http://www.w3.org/2000/svg" xmlns:xlink="http://www.w3.org/1999/xlink" viewBox="0 0 45 45.13"><defs><style>.cls-1{stroke:#1f1f20;stroke-miterlimit:10;fill:url(#radial-gradient);}.cls-2{stroke:#e5e09e;stroke-linecap:round;stroke-linejoin:round;stroke-width:0.25px;fill:url(#Dégradé_sans_nom_88);}</style><radialGradient id="radial-gradient" cx="155" cy="192.13" r="22" gradientTransform="translate(214.63 -132.38) rotate(90)" gradientUnits="userSpaceOnUse"><stop offset="0" stop-color="#565554"/><stop offset="0.05" stop-color="#51504f"/><stop offset="0.23" stop-color="#424242"/><stop offset="0.37" stop-color="#3d3d3e"/><stop offset="0.8" stop-color="#333"/><stop offset="0.99" stop-color="#282829"/></radialGradient><linearGradient id="Dégradé_sans_nom_88" x1="114.6" y1="192.13" x2="93.1" y2="192.13" gradientTransform="matrix(0, -1.07, -1, 0, 214.63, 122.72)" gradientUnits="userSpaceOnUse"><stop offset="0" stop-color="#fced5c"/><stop offset="0.06" stop-color="#fdd249"/><stop offset="0.15" stop-color="#feb032"/><stop offset="0.23" stop-color="#fe9821"/><stop offset="0.31" stop-color="#ff8917"/><stop offset="0.37" stop-color="#ff8413"/><stop offset="0.8" stop-color="#cf4610"/><stop offset="0.99" stop-color="#a53b2e"/></linearGradient></defs><g id="Layer_2" data-name="Layer 2"><g id="Calque_1" data-name="Calque 1"><path class="cls-1" d="M22.5,44.62c-6,0-8-3-8-3v-11H3.5s-3-2-3-8,3-8,3-8h11v-11s2-3,8-3,8,3,8,3v11h11s3,2,3,8-3,8-3,8h-11v11S28.5,44.62,22.5,44.62Z"/><polyline class="cls-2" points="26 23.13 19 23.13 19 8.15 15 8.15 22.5 0.13 30 8.15 26 8.15 26 23.13"/></g></g></svg>