<svg xmlns="http://www.w3.org/2000/svg" xmlns:xlink="http://www.w3.org/1999/xlink" viewBox="0 0 40.25 40.25"><defs><style>.cls-1{stroke:#23221f;stroke-miterlimit:10;stroke-width:0.25px;fill:url(#Dégradé_sans_nom_59);}.cls-2{fill:url(#Dégradé_sans_nom_88);}.cls-3{fill:#fff;}</style><radialGradient id="Dégradé_sans_nom_59" cx="20.13" cy="20.13" r="20" gradientUnits="userSpaceOnUse"><stop offset="0" stop-color="#fff" stop-opacity="0"/><stop offset="0.01" stop-color="#f6f6f6" stop-opacity="0.11"/><stop offset="0.04" stop-color="#e5e5e5" stop-opacity="0.32"/><stop offset="0.07" stop-color="#d7d7d7" stop-opacity="0.51"/><stop offset="0.11" stop-color="#cacaca" stop-opacity="0.66"/><stop offset="0.15" stop-color="silver" stop-opacity="0.79"/><stop offset="0.2" stop-color="#b8b8b8" stop-opacity="0.88"/><stop offset="0.26" stop-color="#b3b3b3" stop-opacity="0.95"/><stop offset="0.34" stop-color="#b0b0b0" stop-opacity="0.99"/><stop offset="0.57" stop-color="#afafaf"/><stop offset="0.72" stop-color="#b1b1b1"/><stop offset="0.78" stop-color="#b8b8b8"/><stop offset="0.82" stop-color="#c3c3c3"/><stop offset="0.85" stop-color="#d4d4d4"/><stop offset="0.87" stop-color="#dfdfdf"/><stop offset="0.94" stop-color="#e1e1e1"/><stop offset="0.96" stop-color="#e8e8e8"/><stop offset="0.98" stop-color="#f3f3f3"/><stop offset="0.99" stop-color="#fff"/></radialGradient><linearGradient id="Dégradé_sans_nom_88" x1="20.13" y1="1.13" x2="20.13" y2="39.13" gradientUnits="userSpaceOnUse"><stop offset="0" stop-color="#fced5c"/><stop offset="0.06" stop-color="#fdd249"/><stop offset="0.15" stop-color="#feb032"/><stop offset="0.23" stop-color="#fe9821"/><stop offset="0.31" stop-color="#ff8917"/><stop offset="0.37" stop-color="#ff8413"/><stop offset="0.8" stop-color="#cf4610"/><stop offset="0.99" stop-color="#a53b2e"/></linearGradient></defs><g id="Layer_2" data-name="Layer 2"><g id="Calque_1" data-name="Calque 1"><circle class="cls-1" cx="20.13" cy="20.13" r="20"/><circle class="cls-2" cx="20.13" cy="20.13" r="19"/><path class="cls-3" d="M17.51,24.55H9.45L7.36,29.12H4.3l9.31-20,9,20h-3.1Zm-1.16-2.66-2.79-6.4-2.92,6.4Z"/><path class="cls-3" d="M28.94,26.46h7v2.66H23.31l6.53-7.9c.65-.79,1.18-1.48,1.62-2a15.3,15.3,0,0,0,1-1.45,4,4,0,0,0,.7-2.06,2.93,2.93,0,0,0-.93-2.21,3.19,3.19,0,0,0-2.29-.89q-2.85,0-3.27,3.38H23.84q.68-6,6-5.95a6.06,6.06,0,0,1,4.32,1.63,5.31,5.31,0,0,1,1.75,4.05,6.19,6.19,0,0,1-.81,3,14.39,14.39,0,0,1-1.22,1.82q-.8,1.07-2,2.49Z"/></g></g></svg>