<svg xmlns="http://www.w3.org/2000/svg" xmlns:xlink="http://www.w3.org/1999/xlink" viewBox="0 0 41 41"><defs><style>.cls-1{stroke:#59fbe7;fill:url(#radial-gradient);}.cls-1,.cls-2{stroke-miterlimit:10;}.cls-2{fill:#061c2d;stroke:#ebf6ff;stroke-width:0.25px;}</style><radialGradient id="radial-gradient" cx="20.5" cy="20.5" r="20" gradientUnits="userSpaceOnUse"><stop offset="0" stop-color="#fff"/><stop offset="0.25" stop-color="#fdffff"/><stop offset="0.4" stop-color="#f4ffff"/><stop offset="0.51" stop-color="#e7fefe"/><stop offset="0.62" stop-color="#d3fdfd"/><stop offset="0.71" stop-color="#b9fcfc"/><stop offset="0.79" stop-color="#9afbfa"/><stop offset="0.82" stop-color="#90fbfa"/><stop offset="0.83" stop-color="#90fbfa" stop-opacity="0.98"/><stop offset="0.85" stop-color="#90fbfa" stop-opacity="0.91"/><stop offset="0.88" stop-color="#90fbfb" stop-opacity="0.81"/><stop offset="0.9" stop-color="#90fbfc" stop-opacity="0.66"/><stop offset="0.91" stop-color="#90fbfc" stop-opacity="0.6"/><stop offset="0.92" stop-color="#8cfbfb" stop-opacity="0.63"/><stop offset="0.95" stop-color="#82fbf7" stop-opacity="0.7"/><stop offset="0.97" stop-color="#71fbf0" stop-opacity="0.83"/><stop offset="1" stop-color="#59fbe7"/></radialGradient></defs><g id="Layer_2" data-name="Layer 2"><g id="Calque_1" data-name="Calque 1"><circle class="cls-1" cx="20.5" cy="20.5" r="20"/><path class="cls-2" d="M5.37,10.58h5.31c6,0,9.66,3.66,9.66,9.69a10.43,10.43,0,0,1-3.15,8,10,10,0,0,1-7,2.31H5.37ZM7.89,28.43h.9c3.39,0,4.83-.36,6.27-1.5,1.8-1.44,2.7-3.66,2.7-6.63,0-4.83-2.58-7.59-7.17-7.59H7.89Z"/><path class="cls-2" d="M26.67,30.59H24.15v-20h5.46c4.26,0,6.84,2.19,6.84,5.82a5.43,5.43,0,0,1-2.88,5,8.25,8.25,0,0,1-3.69.84l7.77,8.31H34.44l-7.77-8.4Zm2.52-10.11c3,0,4.68-1.38,4.68-3.9s-1.5-3.84-4.26-3.84H26.67v7.74Z"/></g></g></svg>