<svg xmlns="http://www.w3.org/2000/svg" xmlns:xlink="http://www.w3.org/1999/xlink" viewBox="0 0 41.51 40.59"><defs><style>.cls-1,.cls-3{stroke:#ebf6ff;stroke-miterlimit:10;stroke-width:0.25px;}.cls-1{fill:url(#radial-gradient);}.cls-2{fill:#fff;opacity:0.5;}.cls-3{fill:#061c2d;}</style><radialGradient id="radial-gradient" cx="-116.05" cy="-25.64" fy="47.68120063575449" r="73.32" gradientTransform="translate(41.34 27.51) scale(0.18 0.27)" gradientUnits="userSpaceOnUse"><stop offset="0" stop-color="#fff"/><stop offset="0.13" stop-color="#fffefb"/><stop offset="0.25" stop-color="#fffbef"/><stop offset="0.38" stop-color="#fff6dc"/><stop offset="0.5" stop-color="#feefc1"/><stop offset="0.62" stop-color="#fee59d"/><stop offset="0.74" stop-color="#fdda73"/><stop offset="0.77" stop-color="#fdd767"/><stop offset="1" stop-color="#fdd965"/></radialGradient></defs><g id="Layer_2" data-name="Layer 2"><g id="Calque_1" data-name="Calque 1"><path class="cls-1" d="M1.59,33.36s8.21,7.11,18.68,7.11c10.93,0,14.1-2.86,19.21-7.55,0,0-3.35,2.65-5.46,2.65l2.11-2.45-3,1.63.88-1s-1.41.62-1.77.21L40,27l-4.94,2.24,5.82-5.51-5.46,2.45,1-1.43L33,27.2l1.41-1.83-1.59.81.71-1.63L33,25l4.93-7.35L33,22.92l4.93-9.59L31.73,21.9l1.05-3.06-.7,1.63v-1L31,21.29l1.06-3.68-1.24,2.25.53-2.45-.53.81,2.3-7.34-2.65,3.87,4.06-12L29.79,12.1,30.49,9,30,10.67l.71-3.06-1.06,3.06,1.23-7.75L29.08,7.2V5.37L27.67,12.1,27.5,9.65A6.89,6.89,0,0,0,27,11.49V6s-.71,3.67-1.06,4.69S24.85,7.2,24.85,7.2l-.35,4.09L24,8.43l-.35,1.43-.18-2-.17,1.63L22.21,2.92V5L20.8.47l-.88,3.67L19.74,1.9,19.21,6,18.16,2.92l.53,5.51L18,6.59l.18,3.47s-.71-4.08-.71-4.9-.88,6.53-.88,6.53l-1.41-5.3.53,6.94-.35-1.43-.18,1.43-2.29-8,1.06,10-8.46-12,5.46,15.91-2.29-2,1.24,2.86s-4.06-6.73-4.06-6.33a29,29,0,0,0,.71,2.86L4.24,12.1,9,25.37,6.53,22.92,8.82,26.8l1.58,2s-3-1.43-3.52-2.45.7,2,1.23,2.65L9.7,30.88,1.24,25l5.11,5.71L.89,30.06s7.05,2.86,7.4,3.47-.53.82-.53.82-2.29-.21-3-.82l1.05,1.22s-2.29-1.42-3-1.83l1.23,1.63Z"/><path class="cls-2" d="M20.6,40.05S13.23,40,12,38.27c0,0,2.4.7,3.16.18,0,0-3.16-2.44-3.76-5.23,0,0,1.8,2.27,2.4,2.27l-1-2.61c.11.15,2,2.77,2.4,2.43,0,0-5.26-12.71-5.11-17.06,0,0,1.8,6.09,2.25,6.44,0,0-1.35-5.05-1.2-6.27,0,0,1.5,7.84,2.25,7.84l-.75-4.7,2.56,7S15.64,26.08,15,25a10.57,10.57,0,0,1,1.35,2.44c.14.65,3.94-20.61,4.21-25.38.27,4.77,4.07,26,4.21,25.38s2-3.49,1.35-2.44S26,28.52,26,28.52l2.55-7-.75,4.7c.75,0,2.26-7.84,2.26-7.84.15,1.22-1.21,6.27-1.21,6.27.46-.35,2.26-6.44,2.26-6.44C31.27,22.6,26,35.31,26,35.31c.44.34,2.29-2.28,2.4-2.43l-1.05,2.61c.6,0,2.41-2.27,2.41-2.27C29.17,36,26,38.45,26,38.45c.75.52,3.16-.18,3.16-.18C28,40,20.6,40.05,20.6,40.05Z"/><path class="cls-3" d="M9.07,31.42H6.55v-20H9.07v9.21l7.77-9.21h3l-8.34,9.9,8.34,10.11H16.66L9.07,22.18Z"/><path class="cls-3" d="M37.39,28.39a8.82,8.82,0,0,1-7.32,3.39,8.91,8.91,0,0,1-6.87-2.94,11.31,11.31,0,0,1-2.67-7.41c0-6,4-10.38,9.57-10.38a9.78,9.78,0,0,1,5,1.35,10.47,10.47,0,0,1,2.34,2.07l-1.74,1.62c-2-2-3.42-2.73-5.55-2.73-4.08,0-7,3.39-7,8.07s3,8,7.17,8a6.64,6.64,0,0,0,5.43-2.76Z"/></g></g></svg>