<svg xmlns="http://www.w3.org/2000/svg" xmlns:xlink="http://www.w3.org/1999/xlink" viewBox="0 0 40.25 40.25"><defs><style>.cls-1{stroke:#23221f;stroke-miterlimit:10;stroke-width:0.25px;fill:url(#Dégradé_sans_nom_59);}.cls-2{fill:url(#Dégradé_sans_nom_78);}.cls-3{fill:#fff;}</style><radialGradient id="Dégradé_sans_nom_59" cx="20.13" cy="20.13" r="20" gradientUnits="userSpaceOnUse"><stop offset="0" stop-color="#fff" stop-opacity="0"/><stop offset="0.01" stop-color="#f6f6f6" stop-opacity="0.11"/><stop offset="0.04" stop-color="#e5e5e5" stop-opacity="0.32"/><stop offset="0.07" stop-color="#d7d7d7" stop-opacity="0.51"/><stop offset="0.11" stop-color="#cacaca" stop-opacity="0.66"/><stop offset="0.15" stop-color="silver" stop-opacity="0.79"/><stop offset="0.2" stop-color="#b8b8b8" stop-opacity="0.88"/><stop offset="0.26" stop-color="#b3b3b3" stop-opacity="0.95"/><stop offset="0.34" stop-color="#b0b0b0" stop-opacity="0.99"/><stop offset="0.57" stop-color="#afafaf"/><stop offset="0.72" stop-color="#b1b1b1"/><stop offset="0.78" stop-color="#b8b8b8"/><stop offset="0.82" stop-color="#c3c3c3"/><stop offset="0.85" stop-color="#d4d4d4"/><stop offset="0.87" stop-color="#dfdfdf"/><stop offset="0.94" stop-color="#e1e1e1"/><stop offset="0.96" stop-color="#e8e8e8"/><stop offset="0.98" stop-color="#f3f3f3"/><stop offset="0.99" stop-color="#fff"/></radialGradient><linearGradient id="Dégradé_sans_nom_78" x1="20.13" y1="1.13" x2="20.13" y2="39.13" gradientUnits="userSpaceOnUse"><stop offset="0" stop-color="#d4727f"/><stop offset="0.13" stop-color="#d06978"/><stop offset="0.34" stop-color="#c64f64"/><stop offset="0.57" stop-color="#b72c49"/><stop offset="0.87" stop-color="#a20317"/><stop offset="0.99" stop-color="#50030b"/></linearGradient></defs><g id="Layer_2" data-name="Layer 2"><g id="Calque_1" data-name="Calque 1"><circle class="cls-1" cx="20.13" cy="20.13" r="20"/><circle class="cls-2" cx="20.13" cy="20.13" r="19"/><path class="cls-3" d="M25.81,13.37l-2.36,1.4a4.09,4.09,0,0,0-1.27-1.5,2.89,2.89,0,0,0-1.61-.4,3,3,0,0,0-2,.69,2.12,2.12,0,0,0-.79,1.7c0,.94.69,1.69,2.09,2.27l1.93.78a8.35,8.35,0,0,1,3.43,2.32A5.24,5.24,0,0,1,26.3,24a5.9,5.9,0,0,1-1.77,4.4,6.1,6.1,0,0,1-4.43,1.74A5.92,5.92,0,0,1,16,28.64a6.79,6.79,0,0,1-2-4.18l2.94-.65a5,5,0,0,0,.7,2.34,3,3,0,0,0,2.62,1.25,3,3,0,0,0,2.26-.91,3.16,3.16,0,0,0,.9-2.31,3.09,3.09,0,0,0-.16-1,2.53,2.53,0,0,0-.48-.86,4,4,0,0,0-.86-.74,9,9,0,0,0-1.25-.65l-1.86-.78q-3.95-1.66-4-4.89a4.62,4.62,0,0,1,1.66-3.63,6,6,0,0,1,4.13-1.48A5.79,5.79,0,0,1,25.81,13.37Z"/></g></g></svg>