<svg xmlns="http://www.w3.org/2000/svg" xmlns:xlink="http://www.w3.org/1999/xlink" viewBox="0 0 40.59 41.51"><defs><style>.cls-1,.cls-3{stroke:#ebf6ff;stroke-miterlimit:10;stroke-width:0.25px;}.cls-1{fill:url(#radial-gradient);}.cls-2{fill:#fff;opacity:0.5;}.cls-3{fill:#061c2d;}</style><radialGradient id="radial-gradient" cx="253.88" cy="-766.22" fy="-692.897211368409" r="73.32" gradientTransform="translate(230.88 65.36) rotate(-90) scale(0.18 0.27)" gradientUnits="userSpaceOnUse"><stop offset="0" stop-color="#fff"/><stop offset="0.13" stop-color="#fffefb"/><stop offset="0.25" stop-color="#fffbef"/><stop offset="0.38" stop-color="#fff6dc"/><stop offset="0.5" stop-color="#feefc1"/><stop offset="0.62" stop-color="#fee59d"/><stop offset="0.74" stop-color="#fdda73"/><stop offset="0.77" stop-color="#fdd767"/><stop offset="1" stop-color="#fdd965"/></radialGradient></defs><g id="Layer_2" data-name="Layer 2"><g id="Calque_1" data-name="Calque 1"><path class="cls-1" d="M33.36,39.91s7.11-8.2,7.11-18.67c0-10.93-2.86-14.1-7.55-19.21,0,0,2.65,3.35,2.65,5.46L33.12,5.38l1.63,3-1-.88s.62,1.41.21,1.76L27,1.5l2.24,4.93L23.73.62l2.45,5.46L24.75,5,27.2,8.55,25.37,7.14l.81,1.59L24.55,8l.41.53L17.61,3.61l5.31,4.94L13.33,3.61,21.9,9.78l-3.06-1,1.63.7h-1l1.84,1.06L17.61,9.43l2.25,1.23-2.45-.53.81.53L10.88,8.37,14.75,11,2.71,7l9.39,4.76L9,11l1.63.52-3.06-.7,3.06,1.06L2.92,10.66,7.2,12.43H5.37l6.73,1.41L9.65,14a6.89,6.89,0,0,0,1.84.53H6s3.67.7,4.69,1.06-3.47,1-3.47,1l4.09.36-2.86.53,1.43.35-2,.17,1.63.18L2.92,19.3H5L.47,20.71l3.67.88-2.24.17L6,22.29,2.92,23.35l5.51-.53-1.84.71,3.47-.18s-4.08.71-4.9.71,6.53.88,6.53.88l-5.3,1.41,6.94-.53-1.43.35,1.43.18-8,2.29,10-1.06L3.33,36l15.91-5.46-2,2.29,2.86-1.24s-6.73,4.06-6.33,4.06A29,29,0,0,0,16.59,35L12.1,37.27l13.27-4.76L22.92,35l3.88-2.29,2-1.59s-1.43,3-2.45,3.53,2-.71,2.65-1.24l1.84-1.58L25,40.27l5.71-5.11-.61,5.46s2.86-7,3.47-7.4.82.53.82.53-.21,2.29-.82,3l1.22-1.05s-1.42,2.29-1.83,3l1.63-1.23Z"/><path class="cls-2" d="M40.05,20.91s0,7.37-1.78,8.57c0,0,.7-2.41.18-3.16,0,0-2.44,3.16-5.23,3.76,0,0,2.27-1.8,2.27-2.41l-2.61,1c.15-.11,2.77-2,2.43-2.4,0,0-12.71,5.26-17.06,5.11,0,0,6.09-1.8,6.44-2.25,0,0-5.05,1.35-6.27,1.2,0,0,7.84-1.5,7.84-2.26l-4.7.76,7-2.56s-2.44-.45-3.48.15,1.74-1.2,2.44-1.35S6.87,21.18,2.1,20.91c4.77-.27,26-4.07,25.38-4.21S24,14.75,25,15.35s3.48.15,3.48.15l-7-2.56,4.7.76c0-.76-7.84-2.26-7.84-2.26,1.22-.15,6.27,1.2,6.27,1.2-.35-.45-6.44-2.25-6.44-2.25,4.35-.15,17.06,5.11,17.06,5.11.34-.44-2.28-2.29-2.43-2.4l2.61,1.05c0-.6-2.27-2.41-2.27-2.41,2.79.6,5.23,3.76,5.23,3.76.52-.75-.18-3.16-.18-3.16C40,13.55,40.05,20.91,40.05,20.91Z"/><path class="cls-3" d="M7.36,25.25c.12,2.28,1.35,3.48,3.54,3.48s3.84-1.38,3.84-3.39c0-1.74-.9-2.55-4.05-3.6-2.37-.81-3.15-1.2-4-2A5,5,0,0,1,5.08,16c0-3.39,2.43-5.7,6-5.7A5.55,5.55,0,0,1,17,16H14.47A3.83,3.83,0,0,0,14,13.91a3.48,3.48,0,0,0-3-1.41,3.2,3.2,0,0,0-3.39,3.27,2.78,2.78,0,0,0,1.14,2.31A11.73,11.73,0,0,0,12,19.49c2.13.75,3.15,1.29,4,2.16a5.15,5.15,0,0,1,1.35,3.54c0,3.45-2.55,5.79-6.3,5.79-2.55,0-4.29-.9-5.34-2.7A4.93,4.93,0,0,1,5,25.67v-.42Z"/><path class="cls-3" d="M21,10.61h5.31c6,0,9.66,3.66,9.66,9.69a10.43,10.43,0,0,1-3.15,8,10,10,0,0,1-7,2.31H21Zm2.52,17.85h.9c3.39,0,4.83-.36,6.27-1.5,1.8-1.44,2.7-3.66,2.7-6.63,0-4.83-2.58-7.59-7.17-7.59h-2.7Z"/></g></g></svg>