<svg xmlns="http://www.w3.org/2000/svg" xmlns:xlink="http://www.w3.org/1999/xlink" viewBox="0 0 42.68 47.5"><defs><style>.cls-1{fill:url(#radial-gradient);}.cls-2{fill:url(#radial-gradient-2);}.cls-3{fill:#fff;stroke:#f3493a;stroke-miterlimit:10;stroke-width:0.5px;}</style><radialGradient id="radial-gradient" cx="21.57" cy="23.6" r="21.05" gradientUnits="userSpaceOnUse"><stop offset="0" stop-color="#fced5c"/><stop offset="0.06" stop-color="#fdd249"/><stop offset="0.15" stop-color="#feb032"/><stop offset="0.23" stop-color="#fe9821"/><stop offset="0.31" stop-color="#ff8917"/><stop offset="0.37" stop-color="#ff8413"/><stop offset="0.8" stop-color="#f25814"/><stop offset="0.99" stop-color="#f6740e"/></radialGradient><radialGradient id="radial-gradient-2" cx="21.57" cy="23.6" r="17.81" xlink:href="#radial-gradient"/></defs><g id="Layer_2" data-name="Layer 2"><g id="Calque_1" data-name="Calque 1"><polyline class="cls-1" points="5.07 11.1 6.07 16.1 3.07 16.1 5.07 19.1 5.07 30.1 2.07 34.1 7.07 34.1 7.07 37.1 13.07 37.1 20.07 46.1 24.07 41.1 26.07 44.1 33.07 36.1 40.07 36.1 37.07 31.1 40.07 31.1 39.07 29.1 39.07 18.1 41.07 15.1 36.07 15.1 37.07 11.1 34.07 11.1 27.07 11.1 24.07 1.1 20.07 7.1 18.07 3.1 17.07 8.1 11.07 12.1 5.07 11.1"/><circle class="cls-2" cx="21.57" cy="23.6" r="17.81"/><polygon class="cls-3" points="1.5 46.2 34.5 24.2 25.5 18.2 42.5 0.2 11.5 23.2 18.5 27.2 1.5 46.2"/></g></g></svg>