<svg xmlns="http://www.w3.org/2000/svg" xmlns:xlink="http://www.w3.org/1999/xlink" viewBox="0 0 34.62 56"><defs><style>.cls-1{fill:none;}.cls-2{clip-path:url(#clip-path);}.cls-3{fill:url(#radial-gradient);}.cls-4{fill:url(#radial-gradient-2);}.cls-5{fill:url(#radial-gradient-3);}.cls-6{fill:url(#radial-gradient-4);}.cls-12,.cls-7{fill:#061c2d;}.cls-8{fill:url(#radial-gradient-5);}.cls-9{fill:url(#radial-gradient-6);}.cls-10{fill:url(#radial-gradient-7);}.cls-11{fill:url(#radial-gradient-8);}.cls-12{stroke:#ebf6ff;stroke-miterlimit:10;stroke-width:0.25px;}.cls-13{fill:url(#radial-gradient-9);}.cls-14{fill:url(#radial-gradient-10);}.cls-15{fill:url(#radial-gradient-11);}.cls-16{fill:url(#radial-gradient-12);}.cls-17{fill:url(#radial-gradient-13);}.cls-18{fill:url(#radial-gradient-14);}.cls-19{fill:url(#radial-gradient-15);}.cls-20{fill:url(#radial-gradient-16);}.cls-21{fill:url(#radial-gradient-17);}.cls-22{fill:url(#radial-gradient-18);}.cls-23{fill:url(#radial-gradient-19);}.cls-24{fill:url(#radial-gradient-20);}.cls-25{fill:url(#radial-gradient-21);}.cls-26{fill:url(#radial-gradient-22);}.cls-27{fill:url(#radial-gradient-23);}.cls-28{fill:url(#radial-gradient-24);}</style><clipPath id="clip-path" transform="translate(-2.67 5.21)"><rect class="cls-1" width="40" height="40"/></clipPath><radialGradient id="radial-gradient" cx="31.63" cy="22.86" r="5.02" gradientUnits="userSpaceOnUse"><stop offset="0" stop-color="#f7ffff" stop-opacity="0.8"/><stop offset="0.31" stop-color="#f3fafa" stop-opacity="0.83"/><stop offset="0.61" stop-color="#e7eaea" stop-opacity="0.93"/><stop offset="0.77" stop-color="#dedede"/><stop offset="0.77" stop-color="#d9d9d9"/><stop offset="0.93" stop-color="#777"/><stop offset="1" stop-color="#505050"/></radialGradient><radialGradient id="radial-gradient-2" cx="31.98" cy="20.36" r="8.37" xlink:href="#radial-gradient"/><radialGradient id="radial-gradient-3" cx="34.99" cy="15.43" r="0.26" gradientTransform="translate(-2.67 -757.98) scale(1 50.48)" xlink:href="#radial-gradient"/><radialGradient id="radial-gradient-4" cx="32.82" cy="22.3" r="6.5" xlink:href="#radial-gradient"/><radialGradient id="radial-gradient-5" cx="33.16" cy="22.86" r="3.84" xlink:href="#radial-gradient"/><radialGradient id="radial-gradient-6" cx="33.58" cy="19.45" r="3.69" xlink:href="#radial-gradient"/><radialGradient id="radial-gradient-7" cx="31.21" cy="26.62" r="3.54" xlink:href="#radial-gradient"/><radialGradient id="radial-gradient-8" cx="31.49" cy="25.92" r="1.48" xlink:href="#radial-gradient"/><radialGradient id="radial-gradient-9" cx="1.63" cy="23.33" r="7.51" xlink:href="#radial-gradient"/><radialGradient id="radial-gradient-10" cx="2.15" cy="19.58" r="12.52" xlink:href="#radial-gradient"/><radialGradient id="radial-gradient-11" cx="5.34" cy="14.79" r="0.39" gradientTransform="translate(-2.67 -726.61) scale(1 50.48)" xlink:href="#radial-gradient"/><radialGradient id="radial-gradient-12" cx="3.4" cy="22.5" r="9.72" xlink:href="#radial-gradient"/><radialGradient id="radial-gradient-13" cx="3.92" cy="23.33" r="5.75" xlink:href="#radial-gradient"/><radialGradient id="radial-gradient-14" cx="4.55" cy="18.23" r="5.52" xlink:href="#radial-gradient"/><radialGradient id="radial-gradient-15" cx="1" cy="28.96" r="5.3" xlink:href="#radial-gradient"/><radialGradient id="radial-gradient-16" cx="1.42" cy="27.92" r="2.21" xlink:href="#radial-gradient"/><radialGradient id="radial-gradient-17" cx="22.63" cy="39.33" r="7.51" xlink:href="#radial-gradient"/><radialGradient id="radial-gradient-18" cx="23.15" cy="35.58" r="12.52" xlink:href="#radial-gradient"/><radialGradient id="radial-gradient-19" cx="26.34" cy="30.79" r="0.39" gradientTransform="translate(-2.67 -1518.21) scale(1 50.48)" xlink:href="#radial-gradient"/><radialGradient id="radial-gradient-20" cx="24.4" cy="38.5" r="9.72" xlink:href="#radial-gradient"/><radialGradient id="radial-gradient-21" cx="24.92" cy="39.33" r="5.75" xlink:href="#radial-gradient"/><radialGradient id="radial-gradient-22" cx="25.55" cy="34.23" r="5.52" xlink:href="#radial-gradient"/><radialGradient id="radial-gradient-23" cx="22" cy="44.96" r="5.3" xlink:href="#radial-gradient"/><radialGradient id="radial-gradient-24" cx="22.42" cy="43.92" r="2.21" xlink:href="#radial-gradient"/></defs><g id="Layer_2" data-name="Layer 2"><g id="Calque_1" data-name="Calque 1"><g class="cls-2"><ellipse class="cls-3" cx="31.63" cy="22.86" rx="0.07" ry="7.1"/><ellipse class="cls-4" cx="31.98" cy="20.36" rx="0.14" ry="11.83"/><ellipse class="cls-5" cx="32.33" cy="20.63" rx="0.21" ry="13.37"/><ellipse class="cls-6" cx="32.82" cy="22.3" rx="0.14" ry="9.19"/><ellipse class="cls-7" cx="33.3" cy="14.93" rx="0.07" ry="3.76"/><ellipse class="cls-8" cx="33.16" cy="22.86" rx="0.07" ry="5.43"/><ellipse class="cls-9" cx="33.58" cy="19.45" rx="0.07" ry="5.22"/><ellipse class="cls-10" cx="31.21" cy="26.62" rx="0.07" ry="5.01"/><ellipse class="cls-11" cx="31.49" cy="25.92" rx="0.07" ry="2.09"/><path class="cls-12" d="M16.34,9.58H19l-7,20H9.59l-6.75-20H5.48l5.37,15.9Z" transform="translate(-2.67 5.21)"/><path class="cls-12" d="M24.17,29.59H21.65v-20H24L34.64,24.64V9.58h2.52v20H34.94L24.17,14.29Z" transform="translate(-2.67 5.21)"/><ellipse class="cls-13" cx="1.63" cy="23.33" rx="0.1" ry="10.63"/><ellipse class="cls-14" cx="2.15" cy="19.58" rx="0.21" ry="17.71"/><ellipse class="cls-15" cx="2.67" cy="20" rx="0.31" ry="20"/><ellipse class="cls-16" cx="3.4" cy="22.5" rx="0.21" ry="13.75"/><ellipse class="cls-7" cx="4.13" cy="11.46" rx="0.1" ry="5.63"/><ellipse class="cls-17" cx="3.92" cy="23.33" rx="0.1" ry="8.13"/><ellipse class="cls-18" cx="4.55" cy="18.23" rx="0.1" ry="7.81"/><ellipse class="cls-19" cx="1" cy="28.96" rx="0.1" ry="7.5"/><ellipse class="cls-20" cx="1.42" cy="27.92" rx="0.1" ry="3.13"/><ellipse class="cls-21" cx="22.63" cy="39.33" rx="0.1" ry="10.63"/><ellipse class="cls-22" cx="23.15" cy="35.58" rx="0.21" ry="17.71"/><ellipse class="cls-23" cx="23.67" cy="36" rx="0.31" ry="20"/><ellipse class="cls-24" cx="24.4" cy="38.5" rx="0.21" ry="13.75"/><ellipse class="cls-7" cx="25.13" cy="27.46" rx="0.1" ry="5.63"/><ellipse class="cls-25" cx="24.92" cy="39.33" rx="0.1" ry="8.13"/><ellipse class="cls-26" cx="25.55" cy="34.23" rx="0.1" ry="7.81"/><ellipse class="cls-27" cx="22" cy="44.96" rx="0.1" ry="7.5"/><ellipse class="cls-28" cx="22.42" cy="43.92" rx="0.1" ry="3.13"/></g></g></g></svg>