<?xml version="1.0" standalone="no"?>
<!DOCTYPE svg PUBLIC "-//W3C//DTD SVG 20010904//EN"
 "http://www.w3.org/TR/2001/REC-SVG-20010904/DTD/svg10.dtd">
<svg version="1.0" xmlns="http://www.w3.org/2000/svg"
 width="700.000000pt" height="700.000000pt" viewBox="0 0 700.000000 700.000000"
 preserveAspectRatio="xMidYMid meet">
<metadata>
Created by potrace 1.14, written by Peter Selinger 2001-2017
</metadata>
<g transform="translate(0.000000,700.000000) scale(0.100000,-0.100000)"
fill="#000000" stroke="none">
<path d="M3278 6996 c-1 -2 -39 -6 -83 -10 -799 -62 -1600 -437 -2176 -1019
-293 -296 -552 -669 -704 -1017 -25 -58 -52 -118 -59 -135 -51 -115 -148 -423
-171 -546 -3 -13 -11 -58 -20 -99 -29 -147 -35 -192 -52 -370 -15 -162 -8
-591 12 -711 2 -13 6 -46 9 -74 12 -105 35 -222 72 -370 26 -104 82 -289 94
-315 5 -8 25 -60 45 -115 62 -165 251 -535 312 -610 4 -6 29 -42 54 -80 169
-256 439 -546 719 -770 92 -74 370 -265 386 -265 4 0 15 -6 23 -14 26 -22 298
-158 411 -205 267 -111 589 -200 859 -237 25 -3 57 -8 71 -10 163 -25 682 -25
842 1 13 2 46 7 73 10 72 10 86 12 120 19 17 3 44 8 60 11 727 138 1435 542
1935 1104 36 41 70 79 76 85 29 30 185 242 240 326 120 184 241 412 315 597
66 163 147 422 175 558 16 75 54 300 60 350 4 33 9 76 11 95 8 71 10 517 3
595 -17 172 -22 220 -25 225 -2 3 -6 30 -10 60 -3 30 -10 71 -15 90 -5 19 -12
51 -15 70 -13 77 -66 272 -106 390 -349 1041 -1164 1856 -2204 2208 -167 56
-419 119 -555 137 -19 3 -46 7 -60 10 -13 2 -54 7 -90 11 -36 3 -78 8 -95 11
-33 5 -531 13 -537 9z m428 -250 c168 -11 254 -22 409 -52 1295 -248 2315
-1260 2575 -2554 11 -58 23 -121 25 -140 3 -19 7 -51 10 -70 2 -19 7 -62 10
-95 3 -33 8 -78 11 -100 5 -47 5 -416 0 -460 -2 -16 -7 -65 -10 -108 -4 -43
-9 -86 -11 -96 -2 -10 -6 -40 -10 -67 -7 -55 -9 -66 -18 -109 -4 -16 -9 -43
-12 -60 -13 -67 -17 -84 -45 -187 -290 -1053 -1068 -1879 -2100 -2231 -130
-45 -302 -89 -475 -122 -58 -11 -251 -34 -335 -41 -101 -7 -404 -7 -475 1 -27
3 -72 8 -100 10 -66 7 -145 18 -212 30 -24 4 -69 12 -162 31 -115 23 -326 89
-488 153 -514 203 -980 549 -1336 993 -151 189 -300 426 -397 633 -67 144
-147 352 -176 460 -1 6 -12 42 -23 80 -22 73 -68 292 -77 360 -2 22 -6 47 -9
55 -2 8 -7 53 -11 100 -3 47 -8 99 -10 115 -5 37 -4 407 0 455 2 19 7 67 10
105 4 39 9 81 11 95 2 14 7 43 10 65 3 23 8 52 10 65 3 14 8 41 11 60 6 44 58
251 86 345 37 125 138 372 208 510 254 496 633 922 1100 1235 65 44 122 80
125 80 3 0 22 11 43 24 137 86 391 201 596 270 110 37 348 100 420 110 21 4
41 8 45 10 3 2 29 6 56 10 74 9 137 17 165 22 14 2 81 7 150 10 69 4 126 7
127 8 4 3 199 -3 279 -8z"/>
<path d="M3278 6505 c-2 -1 -39 -6 -83 -10 -44 -3 -89 -8 -100 -10 -11 -3 -38
-7 -60 -10 -80 -11 -113 -18 -267 -56 -266 -66 -500 -158 -738 -292 -164 -93
-361 -230 -488 -340 -101 -86 -328 -325 -407 -427 -420 -541 -639 -1177 -639
-1850 0 -119 13 -359 19 -370 2 -3 6 -30 10 -60 59 -481 309 -1063 616 -1436
19 -23 48 -58 64 -78 42 -52 84 -96 92 -96 5 0 253 149 413 248 53 33 91 50
130 56 30 5 203 28 305 41 17 2 46 6 65 9 19 3 58 8 85 11 28 3 61 8 75 10 14
2 47 6 74 10 26 4 91 22 145 42 53 19 114 40 136 46 22 6 70 28 107 50 58 33
69 44 78 77 6 21 17 56 24 78 l14 40 -96 75 c-186 146 -187 146 -287 381 -70
166 -90 204 -98 190 -16 -29 -46 -155 -53 -224 -13 -122 -12 -121 -77 -51 -98
106 -174 271 -192 414 -4 31 -11 57 -15 57 -4 0 -68 -48 -141 -106 l-134 -106
-5 68 c-8 94 -4 554 4 579 6 16 -12 39 -89 116 l-96 96 -105 277 c-57 153
-104 281 -104 286 0 5 79 -27 175 -70 l174 -78 -25 66 c-20 53 -23 77 -19 126
3 34 7 86 10 116 4 53 13 128 20 180 2 14 7 50 10 80 3 30 8 66 10 80 2 14 7
45 10 70 3 25 8 52 10 60 2 8 7 35 10 60 17 125 68 314 105 395 23 48 69 100
80 88 4 -4 40 -73 80 -152 106 -209 211 -394 220 -384 5 4 27 44 50 88 150
284 414 582 745 844 81 64 115 85 101 63 -3 -5 -8 -84 -11 -178 -4 -93 -9
-172 -12 -176 -2 -5 3 -8 11 -8 8 0 17 8 20 18 14 42 124 132 268 217 9 6 63
38 120 71 158 94 303 161 373 171 11 1 32 5 48 8 15 2 27 0 27 -5 0 -6 -27
-85 -61 -176 -33 -91 -58 -168 -55 -171 6 -6 135 77 196 126 103 84 238 216
378 369 41 45 78 82 82 82 4 0 14 -17 23 -37 8 -21 45 -107 82 -192 59 -138
157 -411 169 -472 2 -13 14 -62 25 -109 17 -74 20 -111 17 -285 -2 -110 -7
-218 -12 -240 l-7 -39 50 37 c28 20 54 37 58 37 6 0 1 -73 -11 -165 -4 -22 -7
-56 -9 -76 -3 -39 -15 -145 -21 -194 -2 -16 -6 -59 -9 -95 -4 -36 -8 -75 -10
-88 -2 -13 -1 -22 3 -20 13 6 286 160 371 210 46 27 85 48 86 46 1 -2 -53
-131 -121 -288 -68 -157 -158 -365 -200 -463 l-77 -177 -124 -120 c-68 -66
-121 -120 -117 -120 4 0 92 18 195 40 104 22 191 40 194 40 5 0 -254 -267
-466 -479 -72 -72 -81 -78 -165 -105 -49 -15 -96 -30 -104 -33 -20 -7 14 -21
53 -22 33 -1 35 -12 4 -27 -63 -30 -224 -115 -240 -127 -18 -13 -18 -14 2 -57
36 -78 91 -229 91 -248 0 -12 14 -25 39 -36 42 -20 86 -57 114 -96 15 -21 19
-23 28 -10 7 10 12 11 15 4 12 -28 31 -43 61 -47 18 -3 79 -34 136 -70 57 -36
139 -83 183 -105 43 -22 110 -60 147 -86 70 -46 83 -50 217 -61 36 -3 86 -7
113 -10 26 -3 71 -7 100 -10 28 -3 68 -8 87 -10 19 -3 53 -7 75 -9 22 -3 98
-13 168 -21 71 -9 130 -15 131 -13 2 2 21 30 43 63 180 269 320 574 401 880
46 169 57 226 86 435 24 171 25 584 1 710 -1 8 -6 38 -9 65 -52 390 -206 819
-417 1157 -48 78 -98 152 -126 188 -7 8 -29 38 -50 66 -102 137 -342 386 -478
495 -384 309 -830 523 -1280 615 -92 19 -180 34 -230 39 -33 4 -89 10 -125 15
-61 7 -485 12 -492 5z"/>
<path d="M2859 3477 c-132 -164 -305 -429 -293 -449 2 -3 39 -31 82 -62 79
-57 116 -88 142 -120 8 -10 -12 0 -44 23 -68 47 -91 52 -81 19 11 -37 61 -78
96 -78 18 0 28 -4 24 -10 -10 -16 -165 -6 -176 11 -5 8 -25 42 -45 77 -19 34
-37 62 -40 62 -2 0 -8 -10 -13 -22 -6 -16 1 -42 26 -97 51 -112 59 -130 88
-201 14 -36 35 -84 46 -107 10 -24 19 -46 19 -50 0 -13 111 -113 213 -191 80
-62 98 -80 93 -97 -2 -11 -15 -55 -28 -98 l-23 -78 -170 -101 -170 -101 -48
-81 c-26 -44 -90 -153 -142 -241 -100 -168 -111 -203 -85 -270 21 -55 26 -57
192 -50 144 5 188 7 406 20 214 13 325 34 423 79 60 27 60 28 313 271 203 195
225 215 351 328 50 44 92 83 95 87 34 39 272 206 331 232 16 7 29 16 29 20 0
15 -89 96 -125 114 -29 14 -41 27 -46 49 -12 57 -51 130 -120 227 -62 87 -73
98 -102 100 -18 0 -36 2 -42 3 -5 2 -15 3 -21 4 -7 0 -14 9 -16 19 -4 15 1 17
40 13 39 -3 44 -1 39 13 -5 11 10 39 45 84 83 108 89 129 87 289 -2 182 -20
222 -52 116 l-17 -58 -191 -140 c-105 -77 -197 -146 -204 -152 -8 -7 -16 -13
-20 -13 -3 0 -6 37 -5 83 2 141 3 136 -32 150 -18 7 -48 11 -68 8 l-35 -6 -25
-103 c-26 -109 -25 -108 -100 -117 -133 -16 -149 -19 -210 -35 -25 -7 -52 -13
-60 -15 -8 -2 -42 -11 -75 -20 -107 -30 -101 -30 -113 4 -13 36 -13 36 -55 14
-95 -49 89 94 228 178 49 29 97 61 106 70 17 17 57 159 73 262 18 111 17 145
-5 182 -20 33 -24 35 -53 28 -39 -10 -278 -10 -331 -1 l-40 7 -66 -82z m308
-344 c2 -5 -34 -33 -79 -63 -46 -30 -100 -67 -120 -83 -21 -16 -38 -26 -38
-23 0 3 34 55 76 116 l76 110 41 -25 c23 -13 43 -28 44 -32z m351 -412 c66
-184 70 -226 22 -251 -12 -6 -23 -10 -24 -8 -2 2 -38 68 -81 148 -42 80 -81
149 -86 154 -5 5 -50 9 -100 9 l-92 -1 44 20 c68 30 138 46 210 46 l66 0 41
-117z m201 -293 c-39 -51 -80 -106 -92 -122 -48 -65 -113 -132 -324 -335 -12
-11 -27 -12 -85 -2 -94 16 -137 36 -144 70 -3 14 -11 52 -19 84 l-13 58 22
-15 c48 -31 93 -36 159 -17 172 49 297 121 426 246 87 85 131 125 137 125 2 0
-28 -42 -67 -92z m-100 -345 c-22 -65 -39 -123 -39 -130 0 -18 69 -61 110 -68
20 -3 52 0 75 7 22 7 47 13 55 12 8 -1 31 -2 50 -3 l35 -2 -27 -15 c-35 -18
-35 -31 -1 -66 l28 -29 -40 17 c-93 38 -128 44 -255 39 -69 -2 -137 -6 -153
-9 -15 -2 -26 -1 -24 2 16 29 192 318 197 322 4 3 9 13 13 23 3 9 8 17 11 17
2 0 -14 -53 -35 -117z m-595 -170 c8 -35 13 -69 10 -77 -8 -20 -32 -28 -53
-16 -10 5 -68 8 -130 6 -61 -1 -111 0 -111 4 0 3 53 32 119 63 65 32 124 64
131 72 7 9 14 14 15 13 2 -2 10 -31 19 -65z m511 -113 c-3 -5 -18 -10 -33 -10
-15 0 -72 -7 -127 -15 -55 -9 -118 -18 -139 -22 -22 -3 -91 -20 -153 -38
l-113 -32 -35 48 c-19 27 -31 49 -25 49 5 0 33 -9 61 -20 47 -17 55 -18 86 -5
19 8 58 17 86 21 29 3 63 8 77 10 14 2 88 7 165 10 77 3 142 8 144 10 8 8 12
4 6 -6z m-688 -327 c-40 -65 -81 -137 -91 -161 -11 -23 -21 -40 -23 -38 -12
12 162 316 181 316 3 0 -28 -53 -67 -117z"/>
<path d="M3695 3246 c-17 -12 -17 -15 -2 -55 10 -23 17 -51 17 -63 0 -12 3
-19 6 -15 7 7 8 136 2 143 -3 2 -13 -2 -23 -10z"/>
<path d="M3374 3020 c-6 -6 -24 -12 -42 -14 -24 -4 -93 -29 -110 -42 -11 -7
22 -43 46 -52 57 -20 115 12 125 69 6 32 -5 53 -19 39z"/>
</g>
</svg>
